<svg xmlns="http://www.w3.org/2000/svg" viewBox="0 0 1600 900" width="1600" height="900">
  <defs>
    <filter id="blur" x="-20%" y="-20%" width="140%" height="140%"><feGaussianBlur stdDeviation="24"/></filter>
    <linearGradient id="table" x1="0" y1="0" x2="0" y2="1"><stop offset="0" stop-color="#6b463e"/><stop offset="1" stop-color="#4e342f"/></linearGradient>
    <linearGradient id="cream" x1="0" y1="0" x2="0" y2="1"><stop offset="0" stop-color="#fff6f0"/><stop offset="1" stop-color="#d9c9c1"/></linearGradient>
    <linearGradient id="coral" x1="0" y1="0" x2="0" y2="1"><stop offset="0" stop-color="#ff7a70"/><stop offset="1" stop-color="#ff5247"/></linearGradient>
  </defs>
  <rect width="1600" height="900" fill="#17100e"/>
  <ellipse cx="800" cy="525" rx="430" ry="175" fill="#000" opacity="0.36" filter="url(#blur)"/>
  <rect x="425" y="350" width="750" height="285" rx="105" fill="url(#table)" stroke="#f3eae6" stroke-opacity="0.18" stroke-width="4"/>

  <g fill="#f3eae6" opacity="0.52">
    <circle cx="590" cy="410" r="5"/><circle cx="625" cy="450" r="5"/><circle cx="660" cy="492" r="5"/><circle cx="695" cy="535" r="5"/><circle cx="730" cy="578" r="5"/>
    <circle cx="800" cy="390" r="5"/><circle cx="800" cy="438" r="5"/><circle cx="800" cy="486" r="5"/><circle cx="800" cy="534" r="5"/><circle cx="800" cy="582" r="5"/>
    <circle cx="1010" cy="410" r="5"/><circle cx="975" cy="450" r="5"/><circle cx="940" cy="492" r="5"/><circle cx="905" cy="535" r="5"/><circle cx="870" cy="578" r="5"/>
  </g>

  <g filter="url(#blur)" opacity="0.25" fill="#000"><rect x="525" y="330" width="178" height="122" rx="26"/><rect x="711" y="300" width="178" height="122" rx="26"/><rect x="897" y="330" width="178" height="122" rx="26"/></g>
  <g>
    <rect x="520" y="305" width="180" height="122" rx="28" fill="url(#cream)"/>
    <rect x="558" y="348" width="104" height="16" rx="8" fill="#ff5247" opacity="0.7"/>
    <rect x="558" y="382" width="78" height="12" rx="6" fill="#6b463e" opacity="0.45"/>
    <rect x="710" y="275" width="180" height="122" rx="28" fill="url(#cream)"/>
    <rect x="748" y="318" width="104" height="16" rx="8" fill="#ff5247" opacity="0.7"/>
    <rect x="748" y="352" width="78" height="12" rx="6" fill="#6b463e" opacity="0.45"/>
    <rect x="900" y="305" width="180" height="122" rx="28" fill="url(#cream)"/>
    <rect x="938" y="348" width="104" height="16" rx="8" fill="#ff5247" opacity="0.7"/>
    <rect x="938" y="382" width="78" height="12" rx="6" fill="#6b463e" opacity="0.45"/>
  </g>

  <g>
    <g transform="translate(520 500)"><rect x="-70" y="-80" width="140" height="135" rx="40" fill="url(#cream)"/><rect x="-88" y="35" width="176" height="125" rx="52" fill="#bba99f"/><circle cx="-24" cy="-28" r="13" fill="#17100e"/><circle cx="24" cy="-28" r="13" fill="#17100e"/><path d="M-30 1 Q0 27 30 1" fill="none" stroke="#ff5247" stroke-width="8" stroke-linecap="round"/><path d="M0 -80 V-116" stroke="#d9c9c1" stroke-width="10" stroke-linecap="round"/><circle cx="0" cy="-134" r="18" fill="#ff5247"/></g>
    <g transform="translate(800 500)"><rect x="-70" y="-80" width="140" height="135" rx="40" fill="url(#cream)"/><rect x="-88" y="35" width="176" height="125" rx="52" fill="#bba99f"/><circle cx="-24" cy="-28" r="13" fill="#17100e"/><circle cx="24" cy="-28" r="13" fill="#17100e"/><path d="M-30 1 Q0 27 30 1" fill="none" stroke="#ffb84d" stroke-width="8" stroke-linecap="round"/><path d="M0 -80 V-116" stroke="#d9c9c1" stroke-width="10" stroke-linecap="round"/><circle cx="0" cy="-134" r="18" fill="#ffb84d"/></g>
    <g transform="translate(1080 500)"><rect x="-70" y="-80" width="140" height="135" rx="40" fill="url(#cream)"/><rect x="-88" y="35" width="176" height="125" rx="52" fill="#bba99f"/><circle cx="-24" cy="-28" r="13" fill="#17100e"/><circle cx="24" cy="-28" r="13" fill="#17100e"/><path d="M-30 1 Q0 27 30 1" fill="none" stroke="#ff5247" stroke-width="8" stroke-linecap="round"/><path d="M0 -80 V-116" stroke="#d9c9c1" stroke-width="10" stroke-linecap="round"/><circle cx="0" cy="-134" r="18" fill="#ff5247"/></g>
  </g>

  <ellipse cx="800" cy="738" rx="168" ry="95" fill="#000" opacity="0.38" filter="url(#blur)"/>
  <ellipse cx="800" cy="705" rx="145" ry="88" fill="url(#coral)" stroke="#f3eae6" stroke-opacity="0.45" stroke-width="6"/>
  <ellipse cx="800" cy="677" rx="100" ry="43" fill="#ff8a80" opacity="0.75"/>
  <circle cx="1210" cy="255" r="24" fill="#ffb84d"/>
</svg>
